<?xml version="1.0" encoding="UTF-8"?>
<svg xmlns="http://www.w3.org/2000/svg" xmlns:xlink="http://www.w3.org/1999/xlink" width="12px" height="14px" viewBox="0 0 12 13" version="1.1">
<g id="surface1">
<path style=" stroke:none;fill-rule:nonzero;fill:#526278;fill-opacity:1;" d="M 5.101562 1.699219 L 5.699219 1.136719 C 5.949219 0.894531 6.355469 0.894531 6.605469 1.136719 L 11.8125 6.070312 C 12.0625 6.308594 12.0625 6.691406 11.8125 6.929688 L 6.605469 11.863281 C 6.355469 12.105469 5.945312 12.105469 5.699219 11.863281 L 5.101562 11.300781 C 4.847656 11.058594 4.855469 10.667969 5.113281 10.429688 L 8.339844 7.515625 L 0.644531 7.515625 C 0.285156 7.515625 0 7.242188 0 6.90625 L 0 6.09375 C 0 5.757812 0.285156 5.484375 0.644531 5.484375 L 8.339844 5.484375 L 5.113281 2.570312 C 4.851562 2.332031 4.84375 1.941406 5.101562 1.699219 Z M 5.101562 1.699219 "/>
</g>
</svg>
